<?xml version="1.0" standalone="no"?>
<!DOCTYPE svg PUBLIC "-//W3C//DTD SVG 20010904//EN"
 "http://www.w3.org/TR/2001/REC-SVG-20010904/DTD/svg10.dtd">
<svg version="1.0" xmlns="http://www.w3.org/2000/svg"
 width="270.000000pt" height="270.000000pt" viewBox="0 0 270.000000 270.000000"
 preserveAspectRatio="xMidYMid meet">
<metadata>
Created by potrace 1.11, written by Peter Selinger 2001-2013
</metadata>
<g transform="translate(0.000000,270.000000) scale(0.100000,-0.100000)"
fill="#000000" stroke="none">
<path d="M474 2600 c-57 -23 -85 -108 -65 -201 14 -65 34 -89 75 -89 72 0 136
83 107 139 -18 33 -57 54 -86 47 -49 -12 -60 -97 -14 -111 28 -9 35 1 20 29
-8 13 -10 29 -7 35 12 19 36 12 48 -14 23 -50 -52 -109 -90 -71 -13 12 -17 35
-17 85 0 60 3 73 24 95 30 32 73 34 119 6 62 -38 81 -138 39 -201 -42 -64 -93
-77 -204 -54 -52 11 -43 -20 12 -41 164 -62 314 110 232 266 -37 70 -127 107
-193 80z"/>
<path d="M2321 2513 c-6 -21 -11 -50 -11 -65 0 -19 -9 -32 -35 -48 -45 -28
-48 -60 -6 -60 28 0 30 -3 37 -46 5 -34 10 -44 23 -42 11 2 17 16 19 42 3 34
6 37 25 32 12 -3 25 -6 30 -6 4 0 -2 -18 -13 -40 -19 -37 -27 -80 -14 -80 19
0 43 24 59 59 18 40 18 40 61 34 52 -7 56 4 23 69 -19 37 -20 48 -10 91 23
100 12 117 -48 72 l-34 -24 -32 24 c-45 35 -62 32 -74 -12z m59 -44 c0 -5 -4
-9 -10 -9 -5 0 -10 7 -10 16 0 8 5 12 10 9 6 -3 10 -10 10 -16z m54 -85 c-5
-19 -10 -21 -41 -14 -48 11 -49 14 -11 38 38 24 62 13 52 -24z"/>
<path d="M1585 2330 c-148 -23 -272 -78 -397 -176 l-56 -44 -49 22 c-66 30
-196 35 -343 13 -319 -46 -528 -177 -634 -397 -53 -110 -83 -238 -72 -311 6
-39 28 -76 133 -220 150 -206 230 -307 386 -489 152 -179 139 -178 295 -20
130 130 190 170 319 214 103 35 222 46 383 36 102 -6 116 -5 125 10 6 9 29 36
52 58 80 80 215 109 463 99 175 -8 297 -26 386 -60 36 -14 71 -25 76 -25 6 0
9 23 6 58 -5 65 -79 241 -256 602 -57 118 -124 257 -148 308 -55 118 -123 222
-170 257 -61 46 -141 65 -299 70 -77 2 -167 0 -200 -5z"/>
<path d="M2024 1094 c-137 -23 -257 -76 -314 -139 -29 -32 -37 -33 105 10 163
49 364 45 534 -11 106 -35 106 -20 1 19 -13 5 -13 5 0 6 8 0 51 -15 95 -34 44
-19 81 -35 82 -35 2 0 3 7 3 15 0 8 -5 15 -12 15 -6 0 -9 3 -6 6 4 3 20 -2 37
-10 38 -20 52 -3 14 19 l-28 15 28 -6 c16 -4 27 -2 27 5 0 15 -37 37 -88 52
-23 7 -40 14 -38 16 2 2 43 -8 91 -23 57 -18 90 -23 96 -17 20 20 -18 39 -127
66 -201 49 -341 58 -500 31z m59 -21 c-7 -2 -21 -2 -30 0 -10 3 -4 5 12 5 17
0 24 -2 18 -5z m200 0 c-13 -2 -33 -2 -45 0 -13 2 -3 4 22 4 25 0 35 -2 23 -4z
m-276 -9 c-3 -3 -12 -4 -19 -1 -8 3 -5 6 6 6 11 1 17 -2 13 -5z m346 -1 c-7
-2 -19 -2 -25 0 -7 3 -2 5 12 5 14 0 19 -2 13 -5z m-185 -10 c-16 -2 -40 -2
-55 0 -16 2 -3 4 27 4 30 0 43 -2 28 -4z m239 1 c-3 -3 -12 -4 -19 -1 -8 3 -5
6 6 6 11 1 17 -2 13 -5z m-130 -10 c-3 -3 -12 -4 -19 -1 -8 3 -5 6 6 6 11 1
17 -2 13 -5z m-150 -10 c-3 -3 -12 -4 -19 -1 -8 3 -5 6 6 6 11 1 17 -2 13 -5z
m210 0 c-3 -3 -12 -4 -19 -1 -8 3 -5 6 6 6 11 1 17 -2 13 -5z m-80 -10 c-3 -3
-12 -4 -19 -1 -8 3 -5 6 6 6 11 1 17 -2 13 -5z m130 0 c-3 -3 -12 -4 -19 -1
-8 3 -5 6 6 6 11 1 17 -2 13 -5z m-239 -11 c-10 -2 -26 -2 -35 0 -10 3 -2 5
17 5 19 0 27 -2 18 -5z m327 -14 c31 -12 55 -23 53 -24 -2 -2 -33 7 -68 20
-36 13 -60 24 -53 24 7 1 37 -8 68 -20z m-242 4 c-7 -2 -19 -2 -25 0 -7 3 -2
5 12 5 14 0 19 -2 13 -5z m124 1 c-3 -3 -12 -4 -19 -1 -8 3 -5 6 6 6 11 1 17
-2 13 -5z m-70 -10 c-3 -3 -12 -4 -19 -1 -8 3 -5 6 6 6 11 1 17 -2 13 -5z
m203 -34 c8 -5 11 -10 5 -10 -5 0 -17 5 -25 10 -8 5 -10 10 -5 10 6 0 17 -5
25 -10z"/>
<path d="M1287 931 c-94 -21 -206 -69 -284 -122 -112 -77 -286 -270 -277 -306
9 -33 41 -16 86 46 185 254 389 375 648 386 l95 4 -76 -8 c-210 -23 -379 -102
-510 -238 -72 -74 -109 -130 -109 -165 0 -50 32 -30 75 47 63 110 200 224 343
285 100 42 109 37 16 -10 -134 -67 -268 -194 -353 -334 -30 -51 -36 -86 -13
-86 5 0 32 37 60 83 92 152 238 286 376 346 70 30 71 25 1 -11 -81 -42 -166
-110 -214 -172 -43 -55 -93 -155 -85 -168 13 -21 32 -3 57 56 30 67 107 161
180 218 l42 33 -48 -55 c-50 -55 -87 -117 -87 -145 0 -29 15 -15 44 41 66 126
200 215 391 259 l30 7 -25 10 c-14 5 -81 12 -150 14 -98 3 -144 0 -213 -15z"/>
<path d="M2250 746 c-49 -34 -83 -83 -77 -112 4 -23 3 -24 -14 -8 -10 9 -21
29 -24 45 -9 39 -35 38 -35 -1 0 -60 117 -150 195 -150 77 0 135 65 135 153 0
38 -5 53 -25 72 -33 34 -106 35 -155 1z m116 -14 c22 -14 36 -54 30 -87 -10
-50 -50 -85 -100 -85 -22 0 -48 5 -56 10 -11 7 -3 10 28 10 83 0 128 46 106
109 -14 39 -64 41 -93 5 -21 -27 -29 -74 -12 -74 5 0 19 16 31 37 19 32 23 34
36 21 46 -46 -70 -89 -124 -45 -10 8 -5 19 25 50 50 52 98 70 129 49z"/>
<path d="M272 688 c-5 -7 -20 -33 -32 -58 -28 -56 -20 -50 -82 -64 -66 -14
-73 -35 -27 -82 l32 -33 -17 -62 c-18 -63 -15 -109 7 -109 6 0 31 21 53 47
l41 47 37 -27 c58 -45 70 -35 74 53 3 85 6 90 99 156 92 66 83 84 -31 64 -91
-15 -90 -16 -99 22 -9 34 -24 58 -37 58 -4 0 -12 -6 -18 -12z m18 -83 c0 -8
-4 -15 -10 -15 -5 0 -7 7 -4 15 4 8 8 15 10 15 2 0 4 -7 4 -15z m90 -49 c0 -2
-7 -6 -15 -10 -8 -3 -15 -1 -15 4 0 6 7 10 15 10 8 0 15 -2 15 -4z m-100 -81
c-28 -29 -36 -33 -47 -22 -11 11 -11 19 2 49 17 42 54 55 69 25 7 -14 2 -25
-24 -52z m35 -75 c-5 -8 -11 -8 -17 -2 -6 6 -7 16 -3 22 5 8 11 8 17 2 6 -6 7
-16 3 -22z"/>
<path d="M1544 520 l-47 -60 -67 0 c-82 0 -130 -9 -130 -23 0 -6 25 -37 55
-67 l55 -56 -17 -48 c-13 -36 -25 -51 -45 -58 -34 -12 -41 -54 -8 -45 13 3 20
0 20 -9 0 -23 30 -16 39 9 6 14 26 28 56 39 l47 18 65 -56 c40 -34 69 -52 75
-46 5 5 12 49 15 98 l6 89 71 50 c42 31 72 59 74 71 3 18 -4 22 -50 27 -29 4
-67 7 -84 7 -31 0 -32 1 -38 60 -6 50 -10 60 -26 60 -11 0 -38 -25 -66 -60z
m56 -35 c0 -18 -5 -25 -20 -25 -24 0 -25 8 -3 32 21 23 23 23 23 -7z m-145
-95 c-9 -16 -19 -30 -23 -30 -5 0 -21 14 -37 30 l-29 30 52 0 53 0 -16 -30z
m157 -16 c3 -45 3 -45 -47 -74 l-50 -29 -22 21 c-29 27 -29 30 3 84 24 41 29
44 69 44 l43 0 4 -46z m128 41 c0 -2 -20 -18 -45 -35 l-45 -31 0 36 c0 35 0
35 45 35 25 0 45 -2 45 -5z m-285 -168 c-20 -11 -27 -5 -19 17 5 13 9 14 21 5
12 -11 12 -14 -2 -22z m161 -54 c-5 -5 -66 38 -66 47 0 4 15 13 33 22 l32 15
3 -39 c2 -22 1 -42 -2 -45z"/>
</g>
</svg>
